<svg xmlns="http://www.w3.org/2000/svg" viewBox="0 0 1400 900" width="1400" height="900" role="img"><defs>
<filter id="sombra" x="-30%" y="-30%" width="160%" height="160%">
  <feGaussianBlur stdDeviation="18"/>
</filter>
<filter id="sombraSuave" x="-40%" y="-40%" width="180%" height="180%">
  <feGaussianBlur stdDeviation="9"/>
</filter>
<pattern id="tramaLinho" width="9" height="9" patternUnits="userSpaceOnUse">
  <rect width="9" height="9" fill="#EAE4D6"/>
  <rect width="3.5" height="9" fill="#DED6C3" fill-opacity="0.55"/>
  <rect width="9" height="3.5" fill="#FFFFFF" fill-opacity="0.28"/>
</pattern>
<pattern id="tramaPapel" width="26" height="26" patternUnits="userSpaceOnUse">
  <rect width="26" height="26" fill="#EFE9DC"/>
  <rect width="26" height="1" fill="#E6DECD" fill-opacity="0.5"/>
</pattern>
<radialGradient id="vinheta" cx="50%" cy="42%" r="72%">
  <stop offset="55%" stop-color="#000" stop-opacity="0"/>
  <stop offset="100%" stop-color="#2B2115" stop-opacity="0.14"/>
</radialGradient>

</defs><rect width="1400" height="900" fill="url(#tramaLinho)"/><g transform="translate(300,470) scale(0.4) translate(-500,-620)"><ellipse cx="500" cy="835" rx="360" ry="48" fill="#6B5A43" opacity="0.20" filter="url(#sombra)"/><path d="M250 790 C238 580, 370 425, 522 427 C678 429, 768 562, 762 788 Z" fill="#D8C9AC"/><path d="M340 788 C370 550, 400 470, 442 434" fill="none" stroke="#00000022" stroke-width="3.5"/><path d="M450 788 C480 525, 510 470, 552 434" fill="none" stroke="#00000022" stroke-width="3.5"/><path d="M565 788 C595 540, 625 470, 667 434" fill="none" stroke="#00000022" stroke-width="3.5"/><path d="M254 770 C140 770, 48 826, 54 866 C60 906, 170 856, 262 806 Z" fill="#CDBC9B"/><path d="M70 864 C150 842, 200 816, 252 792" fill="none" stroke="#00000026" stroke-width="3.5"/><circle cx="522" cy="424" r="17" fill="#D8C9AC" stroke="#00000022" stroke-width="3"/><g transform="translate(314,554) scale(0.85)" fill="none" stroke="#1C2B3A" stroke-width="9" stroke-linejoin="round"><path d="M60 0 L112 30 L112 90 L60 120 L8 90 L8 30 Z"/><path d="M36 86 L60 30 L84 86 M46 66 L74 66" stroke-linecap="round"/></g><circle cx="560" cy="580" r="9" fill="#00000022"/><circle cx="650" cy="580" r="9" fill="#00000022"/></g><g transform="translate(700,440) scale(0.5) translate(-500,-620)"><ellipse cx="500" cy="835" rx="360" ry="48" fill="#6B5A43" opacity="0.20" filter="url(#sombra)"/><path d="M250 790 C238 580, 370 425, 522 427 C678 429, 768 562, 762 788 Z" fill="#1C2B3A"/><path d="M340 788 C370 550, 400 470, 442 434" fill="none" stroke="#00000022" stroke-width="3.5"/><path d="M450 788 C480 525, 510 470, 552 434" fill="none" stroke="#00000022" stroke-width="3.5"/><path d="M565 788 C595 540, 625 470, 667 434" fill="none" stroke="#00000022" stroke-width="3.5"/><path d="M254 770 C140 770, 48 826, 54 866 C60 906, 170 856, 262 806 Z" fill="#16222E"/><path d="M70 864 C150 842, 200 816, 252 792" fill="none" stroke="#00000026" stroke-width="3.5"/><circle cx="522" cy="424" r="17" fill="#1C2B3A" stroke="#00000022" stroke-width="3"/><g transform="translate(314,554) scale(0.85)" fill="none" stroke="#8A6D3A" stroke-width="9" stroke-linejoin="round"><path d="M60 0 L112 30 L112 90 L60 120 L8 90 L8 30 Z"/><path d="M36 86 L60 30 L84 86 M46 66 L74 66" stroke-linecap="round"/></g><circle cx="560" cy="580" r="9" fill="#00000022"/><circle cx="650" cy="580" r="9" fill="#00000022"/></g><g transform="translate(1100,470) scale(0.4) translate(-500,-620)"><ellipse cx="500" cy="835" rx="360" ry="48" fill="#6B5A43" opacity="0.20" filter="url(#sombra)"/><path d="M250 790 C238 580, 370 425, 522 427 C678 429, 768 562, 762 788 Z" fill="#5E6247"/><path d="M340 788 C370 550, 400 470, 442 434" fill="none" stroke="#00000022" stroke-width="3.5"/><path d="M450 788 C480 525, 510 470, 552 434" fill="none" stroke="#00000022" stroke-width="3.5"/><path d="M565 788 C595 540, 625 470, 667 434" fill="none" stroke="#00000022" stroke-width="3.5"/><path d="M254 770 C140 770, 48 826, 54 866 C60 906, 170 856, 262 806 Z" fill="#54583F"/><path d="M70 864 C150 842, 200 816, 252 792" fill="none" stroke="#00000026" stroke-width="3.5"/><circle cx="522" cy="424" r="17" fill="#5E6247" stroke="#00000022" stroke-width="3"/><g transform="translate(314,554) scale(0.85)" fill="none" stroke="#F5F1E8" stroke-width="9" stroke-linejoin="round"><path d="M60 0 L112 30 L112 90 L60 120 L8 90 L8 30 Z"/><path d="M36 86 L60 30 L84 86 M46 66 L74 66" stroke-linecap="round"/></g><circle cx="560" cy="580" r="9" fill="#00000022"/><circle cx="650" cy="580" r="9" fill="#00000022"/></g><rect width="1400" height="900" fill="url(#vinheta)"/></svg>
