<svg xmlns="http://www.w3.org/2000/svg" viewBox="0 0 1000 1250" width="1000" height="1250" role="img">
<defs>
<filter id="sombra" x="-30%" y="-30%" width="160%" height="160%">
  <feGaussianBlur stdDeviation="18"/>
</filter>
<filter id="sombraSuave" x="-40%" y="-40%" width="180%" height="180%">
  <feGaussianBlur stdDeviation="9"/>
</filter>
<pattern id="tramaLinho" width="9" height="9" patternUnits="userSpaceOnUse">
  <rect width="9" height="9" fill="#EAE4D6"/>
  <rect width="3.5" height="9" fill="#DED6C3" fill-opacity="0.55"/>
  <rect width="9" height="3.5" fill="#FFFFFF" fill-opacity="0.28"/>
</pattern>
<pattern id="tramaPapel" width="26" height="26" patternUnits="userSpaceOnUse">
  <rect width="26" height="26" fill="#EFE9DC"/>
  <rect width="26" height="1" fill="#E6DECD" fill-opacity="0.5"/>
</pattern>
<radialGradient id="vinheta" cx="50%" cy="42%" r="72%">
  <stop offset="55%" stop-color="#000" stop-opacity="0"/>
  <stop offset="100%" stop-color="#2B2115" stop-opacity="0.14"/>
</radialGradient>

</defs>
<rect width="1000" height="1250" fill="#EAE4D6"/><rect width="1000" height="1250" fill="url(#tramaLinho)"/><rect width="1000" height="1250" fill="url(#vinheta)"/><g transform="translate(500.0,645.0) rotate(-9) scale(0.94) translate(-500.0,-625.0)"><ellipse cx="510" cy="670" rx="282" ry="270" fill="#6B5A43" opacity="0.22" filter="url(#sombra)"/><circle cx="500.0" cy="410.0" r="30" fill="#8A6D3A"/><circle cx="491.0" cy="400.0" r="9.9" fill="#FFFFFF" opacity="0.30"/><circle cx="564.8" cy="419.3" r="30" fill="#23262B"/><circle cx="555.8" cy="409.3" r="9.9" fill="#FFFFFF" opacity="0.30"/><circle cx="624.3" cy="446.5" r="30" fill="#23262B"/><circle cx="615.3" cy="436.5" r="9.9" fill="#FFFFFF" opacity="0.30"/><circle cx="673.8" cy="489.4" r="30" fill="#23262B"/><circle cx="664.8" cy="479.4" r="9.9" fill="#FFFFFF" opacity="0.30"/><circle cx="709.2" cy="544.5" r="30" fill="#23262B"/><circle cx="700.2" cy="534.5" r="9.9" fill="#FFFFFF" opacity="0.30"/><circle cx="727.7" cy="607.3" r="30" fill="#23262B"/><circle cx="718.7" cy="597.3" r="9.9" fill="#FFFFFF" opacity="0.30"/><circle cx="727.7" cy="672.7" r="30" fill="#23262B"/><circle cx="718.7" cy="662.7" r="9.9" fill="#FFFFFF" opacity="0.30"/><circle cx="709.2" cy="735.5" r="30" fill="#23262B"/><circle cx="700.2" cy="725.5" r="9.9" fill="#FFFFFF" opacity="0.30"/><circle cx="673.8" cy="790.6" r="30" fill="#23262B"/><circle cx="664.8" cy="780.6" r="9.9" fill="#FFFFFF" opacity="0.30"/><circle cx="624.3" cy="833.5" r="30" fill="#23262B"/><circle cx="615.3" cy="823.5" r="9.9" fill="#FFFFFF" opacity="0.30"/><circle cx="564.8" cy="860.7" r="30" fill="#23262B"/><circle cx="555.8" cy="850.7" r="9.9" fill="#FFFFFF" opacity="0.30"/><circle cx="500.0" cy="870.0" r="30" fill="#23262B"/><circle cx="491.0" cy="860.0" r="9.9" fill="#FFFFFF" opacity="0.30"/><circle cx="435.2" cy="860.7" r="30" fill="#23262B"/><circle cx="426.2" cy="850.7" r="9.9" fill="#FFFFFF" opacity="0.30"/><circle cx="375.7" cy="833.5" r="30" fill="#23262B"/><circle cx="366.7" cy="823.5" r="9.9" fill="#FFFFFF" opacity="0.30"/><circle cx="326.2" cy="790.6" r="30" fill="#23262B"/><circle cx="317.2" cy="780.6" r="9.9" fill="#FFFFFF" opacity="0.30"/><circle cx="290.8" cy="735.5" r="30" fill="#23262B"/><circle cx="281.8" cy="725.5" r="9.9" fill="#FFFFFF" opacity="0.30"/><circle cx="272.3" cy="672.7" r="30" fill="#23262B"/><circle cx="263.3" cy="662.7" r="9.9" fill="#FFFFFF" opacity="0.30"/><circle cx="272.3" cy="607.3" r="30" fill="#23262B"/><circle cx="263.3" cy="597.3" r="9.9" fill="#FFFFFF" opacity="0.30"/><circle cx="290.8" cy="544.5" r="30" fill="#23262B"/><circle cx="281.8" cy="534.5" r="9.9" fill="#FFFFFF" opacity="0.30"/><circle cx="326.2" cy="489.4" r="30" fill="#23262B"/><circle cx="317.2" cy="479.4" r="9.9" fill="#FFFFFF" opacity="0.30"/><circle cx="375.7" cy="446.5" r="30" fill="#23262B"/><circle cx="366.7" cy="436.5" r="9.9" fill="#FFFFFF" opacity="0.30"/><circle cx="435.2" cy="419.3" r="30" fill="#23262B"/><circle cx="426.2" cy="409.3" r="9.9" fill="#FFFFFF" opacity="0.30"/><circle cx="500.0" cy="410.0" r="42" fill="#8A6D3A"/><circle cx="500.0" cy="410.0" r="42" fill="none" stroke="#6F5629" stroke-width="3"/><path d="M485.0 425.0 L500.0 393.0 L515.0 425.0 M492.0 413.0 L508.0 413.0" fill="none" stroke="#F5F1E8" stroke-width="4.5" stroke-linecap="round"/></g><g opacity="0.13" transform="translate(882,1146) scale(0.62)" fill="none" stroke="#1C2B3A" stroke-width="5"><path d="M60 0 L112 30 L112 90 L60 120 L8 90 L8 30 Z"/><path d="M38 84 L60 34 L82 84 M47 66 L73 66" stroke-linecap="round"/></g></svg>
