<svg xmlns="http://www.w3.org/2000/svg" viewBox="0 0 1000 1250" width="1000" height="1250" role="img">
<defs>
<filter id="sombra" x="-30%" y="-30%" width="160%" height="160%">
  <feGaussianBlur stdDeviation="18"/>
</filter>
<filter id="sombraSuave" x="-40%" y="-40%" width="180%" height="180%">
  <feGaussianBlur stdDeviation="9"/>
</filter>
<pattern id="tramaLinho" width="9" height="9" patternUnits="userSpaceOnUse">
  <rect width="9" height="9" fill="#EAE4D6"/>
  <rect width="3.5" height="9" fill="#DED6C3" fill-opacity="0.55"/>
  <rect width="9" height="3.5" fill="#FFFFFF" fill-opacity="0.28"/>
</pattern>
<pattern id="tramaPapel" width="26" height="26" patternUnits="userSpaceOnUse">
  <rect width="26" height="26" fill="#EFE9DC"/>
  <rect width="26" height="1" fill="#E6DECD" fill-opacity="0.5"/>
</pattern>
<radialGradient id="vinheta" cx="50%" cy="42%" r="72%">
  <stop offset="55%" stop-color="#000" stop-opacity="0"/>
  <stop offset="100%" stop-color="#2B2115" stop-opacity="0.14"/>
</radialGradient>

</defs>
<rect width="1000" height="1250" fill="#EFE9DC"/><rect width="1000" height="1250" fill="url(#tramaPapel)"/><rect width="1000" height="1250" fill="url(#vinheta)"/><g transform="translate(500.0,625.0) rotate(0) scale(1.0) translate(-500.0,-625.0)"><ellipse cx="510" cy="670" rx="282" ry="270" fill="#6B5A43" opacity="0.22" filter="url(#sombra)"/><circle cx="500" cy="640" r="230" fill="none" stroke="#1C2B3A" stroke-width="40"/><line x1="713.0" y1="640.0" x2="746.1" y2="661.0" stroke="#2E4459" stroke-opacity="0.5" stroke-width="6" stroke-linecap="round"/><line x1="712.0" y1="660.9" x2="742.9" y2="685.0" stroke="#2E4459" stroke-opacity="0.5" stroke-width="6" stroke-linecap="round"/><line x1="708.9" y1="681.6" x2="737.3" y2="708.6" stroke="#2E4459" stroke-opacity="0.5" stroke-width="6" stroke-linecap="round"/><line x1="703.8" y1="701.8" x2="729.4" y2="731.5" stroke="#2E4459" stroke-opacity="0.5" stroke-width="6" stroke-linecap="round"/><line x1="696.8" y1="721.5" x2="719.3" y2="753.6" stroke="#2E4459" stroke-opacity="0.5" stroke-width="6" stroke-linecap="round"/><line x1="687.8" y1="740.4" x2="707.2" y2="774.5" stroke="#2E4459" stroke-opacity="0.5" stroke-width="6" stroke-linecap="round"/><line x1="677.1" y1="758.3" x2="693.0" y2="794.2" stroke="#2E4459" stroke-opacity="0.5" stroke-width="6" stroke-linecap="round"/><line x1="664.7" y1="775.1" x2="676.9" y2="812.3" stroke="#2E4459" stroke-opacity="0.5" stroke-width="6" stroke-linecap="round"/><line x1="650.6" y1="790.6" x2="659.2" y2="828.9" stroke="#2E4459" stroke-opacity="0.5" stroke-width="6" stroke-linecap="round"/><line x1="635.1" y1="804.7" x2="639.9" y2="843.5" stroke="#2E4459" stroke-opacity="0.5" stroke-width="6" stroke-linecap="round"/><line x1="618.3" y1="817.1" x2="619.3" y2="856.3" stroke="#2E4459" stroke-opacity="0.5" stroke-width="6" stroke-linecap="round"/><line x1="600.4" y1="827.8" x2="597.5" y2="866.9" stroke="#2E4459" stroke-opacity="0.5" stroke-width="6" stroke-linecap="round"/><line x1="581.5" y1="836.8" x2="574.8" y2="875.4" stroke="#2E4459" stroke-opacity="0.5" stroke-width="6" stroke-linecap="round"/><line x1="561.8" y1="843.8" x2="551.4" y2="881.6" stroke="#2E4459" stroke-opacity="0.5" stroke-width="6" stroke-linecap="round"/><line x1="541.6" y1="848.9" x2="527.4" y2="885.5" stroke="#2E4459" stroke-opacity="0.5" stroke-width="6" stroke-linecap="round"/><line x1="520.9" y1="852.0" x2="503.3" y2="887.0" stroke="#2E4459" stroke-opacity="0.5" stroke-width="6" stroke-linecap="round"/><line x1="500.0" y1="853.0" x2="479.0" y2="886.1" stroke="#2E4459" stroke-opacity="0.5" stroke-width="6" stroke-linecap="round"/><line x1="479.1" y1="852.0" x2="455.0" y2="882.9" stroke="#2E4459" stroke-opacity="0.5" stroke-width="6" stroke-linecap="round"/><line x1="458.4" y1="848.9" x2="431.4" y2="877.3" stroke="#2E4459" stroke-opacity="0.5" stroke-width="6" stroke-linecap="round"/><line x1="438.2" y1="843.8" x2="408.5" y2="869.4" stroke="#2E4459" stroke-opacity="0.5" stroke-width="6" stroke-linecap="round"/><line x1="418.5" y1="836.8" x2="386.4" y2="859.3" stroke="#2E4459" stroke-opacity="0.5" stroke-width="6" stroke-linecap="round"/><line x1="399.6" y1="827.8" x2="365.5" y2="847.2" stroke="#2E4459" stroke-opacity="0.5" stroke-width="6" stroke-linecap="round"/><line x1="381.7" y1="817.1" x2="345.8" y2="833.0" stroke="#2E4459" stroke-opacity="0.5" stroke-width="6" stroke-linecap="round"/><line x1="364.9" y1="804.7" x2="327.7" y2="816.9" stroke="#2E4459" stroke-opacity="0.5" stroke-width="6" stroke-linecap="round"/><line x1="349.4" y1="790.6" x2="311.1" y2="799.2" stroke="#2E4459" stroke-opacity="0.5" stroke-width="6" stroke-linecap="round"/><line x1="335.3" y1="775.1" x2="296.5" y2="779.9" stroke="#2E4459" stroke-opacity="0.5" stroke-width="6" stroke-linecap="round"/><line x1="322.9" y1="758.3" x2="283.7" y2="759.3" stroke="#2E4459" stroke-opacity="0.5" stroke-width="6" stroke-linecap="round"/><line x1="312.2" y1="740.4" x2="273.1" y2="737.5" stroke="#2E4459" stroke-opacity="0.5" stroke-width="6" stroke-linecap="round"/><line x1="303.2" y1="721.5" x2="264.6" y2="714.8" stroke="#2E4459" stroke-opacity="0.5" stroke-width="6" stroke-linecap="round"/><line x1="296.2" y1="701.8" x2="258.4" y2="691.4" stroke="#2E4459" stroke-opacity="0.5" stroke-width="6" stroke-linecap="round"/><line x1="291.1" y1="681.6" x2="254.5" y2="667.4" stroke="#2E4459" stroke-opacity="0.5" stroke-width="6" stroke-linecap="round"/><line x1="288.0" y1="660.9" x2="253.0" y2="643.3" stroke="#2E4459" stroke-opacity="0.5" stroke-width="6" stroke-linecap="round"/><line x1="287.0" y1="640.0" x2="253.9" y2="619.0" stroke="#2E4459" stroke-opacity="0.5" stroke-width="6" stroke-linecap="round"/><line x1="288.0" y1="619.1" x2="257.1" y2="595.0" stroke="#2E4459" stroke-opacity="0.5" stroke-width="6" stroke-linecap="round"/><line x1="291.1" y1="598.4" x2="262.7" y2="571.4" stroke="#2E4459" stroke-opacity="0.5" stroke-width="6" stroke-linecap="round"/><line x1="296.2" y1="578.2" x2="270.6" y2="548.5" stroke="#2E4459" stroke-opacity="0.5" stroke-width="6" stroke-linecap="round"/><line x1="303.2" y1="558.5" x2="280.7" y2="526.4" stroke="#2E4459" stroke-opacity="0.5" stroke-width="6" stroke-linecap="round"/><line x1="312.2" y1="539.6" x2="292.8" y2="505.5" stroke="#2E4459" stroke-opacity="0.5" stroke-width="6" stroke-linecap="round"/><line x1="322.9" y1="521.7" x2="307.0" y2="485.8" stroke="#2E4459" stroke-opacity="0.5" stroke-width="6" stroke-linecap="round"/><line x1="335.3" y1="504.9" x2="323.1" y2="467.7" stroke="#2E4459" stroke-opacity="0.5" stroke-width="6" stroke-linecap="round"/><line x1="349.4" y1="489.4" x2="340.8" y2="451.1" stroke="#2E4459" stroke-opacity="0.5" stroke-width="6" stroke-linecap="round"/><line x1="364.9" y1="475.3" x2="360.1" y2="436.5" stroke="#2E4459" stroke-opacity="0.5" stroke-width="6" stroke-linecap="round"/><line x1="381.7" y1="462.9" x2="380.7" y2="423.7" stroke="#2E4459" stroke-opacity="0.5" stroke-width="6" stroke-linecap="round"/><line x1="399.6" y1="452.2" x2="402.5" y2="413.1" stroke="#2E4459" stroke-opacity="0.5" stroke-width="6" stroke-linecap="round"/><line x1="418.5" y1="443.2" x2="425.2" y2="404.6" stroke="#2E4459" stroke-opacity="0.5" stroke-width="6" stroke-linecap="round"/><line x1="438.2" y1="436.2" x2="448.6" y2="398.4" stroke="#2E4459" stroke-opacity="0.5" stroke-width="6" stroke-linecap="round"/><line x1="458.4" y1="431.1" x2="472.6" y2="394.5" stroke="#2E4459" stroke-opacity="0.5" stroke-width="6" stroke-linecap="round"/><line x1="479.1" y1="428.0" x2="496.7" y2="393.0" stroke="#2E4459" stroke-opacity="0.5" stroke-width="6" stroke-linecap="round"/><line x1="500.0" y1="427.0" x2="521.0" y2="393.9" stroke="#2E4459" stroke-opacity="0.5" stroke-width="6" stroke-linecap="round"/><line x1="520.9" y1="428.0" x2="545.0" y2="397.1" stroke="#2E4459" stroke-opacity="0.5" stroke-width="6" stroke-linecap="round"/><line x1="541.6" y1="431.1" x2="568.6" y2="402.7" stroke="#2E4459" stroke-opacity="0.5" stroke-width="6" stroke-linecap="round"/><line x1="561.8" y1="436.2" x2="591.5" y2="410.6" stroke="#2E4459" stroke-opacity="0.5" stroke-width="6" stroke-linecap="round"/><line x1="581.5" y1="443.2" x2="613.6" y2="420.7" stroke="#2E4459" stroke-opacity="0.5" stroke-width="6" stroke-linecap="round"/><line x1="600.4" y1="452.2" x2="634.5" y2="432.8" stroke="#2E4459" stroke-opacity="0.5" stroke-width="6" stroke-linecap="round"/><line x1="618.3" y1="462.9" x2="654.2" y2="447.0" stroke="#2E4459" stroke-opacity="0.5" stroke-width="6" stroke-linecap="round"/><line x1="635.1" y1="475.3" x2="672.3" y2="463.1" stroke="#2E4459" stroke-opacity="0.5" stroke-width="6" stroke-linecap="round"/><line x1="650.6" y1="489.4" x2="688.9" y2="480.8" stroke="#2E4459" stroke-opacity="0.5" stroke-width="6" stroke-linecap="round"/><line x1="664.7" y1="504.9" x2="703.5" y2="500.1" stroke="#2E4459" stroke-opacity="0.5" stroke-width="6" stroke-linecap="round"/><line x1="677.1" y1="521.7" x2="716.3" y2="520.7" stroke="#2E4459" stroke-opacity="0.5" stroke-width="6" stroke-linecap="round"/><line x1="687.8" y1="539.6" x2="726.9" y2="542.5" stroke="#2E4459" stroke-opacity="0.5" stroke-width="6" stroke-linecap="round"/><line x1="696.8" y1="558.5" x2="735.4" y2="565.2" stroke="#2E4459" stroke-opacity="0.5" stroke-width="6" stroke-linecap="round"/><line x1="703.8" y1="578.2" x2="741.6" y2="588.6" stroke="#2E4459" stroke-opacity="0.5" stroke-width="6" stroke-linecap="round"/><line x1="708.9" y1="598.4" x2="745.5" y2="612.6" stroke="#2E4459" stroke-opacity="0.5" stroke-width="6" stroke-linecap="round"/><line x1="712.0" y1="619.1" x2="747.0" y2="636.7" stroke="#2E4459" stroke-opacity="0.5" stroke-width="6" stroke-linecap="round"/><rect x="448" y="380" width="104" height="60" rx="14" fill="#8A6D3A"/><rect x="448" y="380" width="104" height="60" rx="14" fill="none" stroke="#6F5629" stroke-width="3"/><circle cx="500" cy="410" r="9" fill="#F5F1E8" opacity="0.85"/></g><g opacity="0.13" transform="translate(882,1146) scale(0.62)" fill="none" stroke="#1C2B3A" stroke-width="5"><path d="M60 0 L112 30 L112 90 L60 120 L8 90 L8 30 Z"/><path d="M38 84 L60 34 L82 84 M47 66 L73 66" stroke-linecap="round"/></g></svg>
